<?xml version="1.0" encoding="UTF-8" standalone="no"?>
<svg id="svg2" xmlns:rdf="http://www.w3.org/1999/02/22-rdf-syntax-ns#" xmlns="http://www.w3.org/2000/svg" height="139.01mm" width="182.43mm" version="1.1" xmlns:cc="http://creativecommons.org/ns#" xmlns:dc="http://purl.org/dc/elements/1.1/" viewBox="0 0 646.40424 492.57169">
 <title id="title4626">Vita Themes Logo</title>
 <metadata id="metadata7">
  <rdf:RDF>
   <cc:Work rdf:about="">
    <dc:format>image/svg+xml</dc:format>
    <dc:type rdf:resource="http://purl.org/dc/dcmitype/StillImage"/>
    <dc:title>Vita Themes Logo</dc:title>
    <dc:date>Auguest 14th, 2016</dc:date>
    <dc:creator>
     <cc:Agent>
      <dc:title>RePod</dc:title>
     </cc:Agent>
    </dc:creator>
    <dc:description>Literally 50 years in Inkscape. Probably not the last time I try making anything remotely decent in Inkscape.</dc:description>
   </cc:Work>
  </rdf:RDF>
 </metadata>
 <g id="layer1" transform="translate(0 -559.79)">
  <g id="g4636" fill="#2185f4">
   <g fill-rule="evenodd">
    <path id="path4494" d="m0 559.79 9.8145 22.857h98.57l-9.8145-22.857h-98.57z"/>
    <path id="path4490" d="m137.83 651.22h-98.57l63.178 147.14h98.57l-63.178-147.14z"/>
    <path id="path4486" d="m230.45 866.93h-98.57l79.125 184.29h98.57l-79.125-184.29z"/>
    <rect id="rect4428-8" transform="matrix(-1 0 -.39453 .91888 0 0)" height="534.81" width="98.571" y="610.45" x="-761.84"/>
   </g>
   <rect id="rect4526-7" height="490.66" width="97.972" y="560.93" x="422.43"/>
   <path id="rect4530" d="m496.63 715.98v-155.06h149.77v24.086s-9.3153 0.0418-13.998 0c-61.856 0-112 45.219-112 101 0.002 10.163 0 29.973 0 29.973z"/>
   <path id="rect4530-4" d="m446.15 715.98v-155.06h-149.77v24.086s9.3153 0.0418 13.998 0c61.856 0 112 45.219 112 101-0.002 10.163 0 29.973 0 29.973z"/>
  </g>
 </g>
</svg>
